HIERARCHY
ROOT Hips
{
	OFFSET -0.001795 -0.223333 0.028219
	CHANNELS 6 Xposition Yposition Zposition Zrotation Yrotation Xrotation 
	JOINT LeftUpLeg
	{
		OFFSET 0.069520 -0.091406 -0.006815
		CHANNELS 3 Zrotation Yrotation Xrotation
		JOINT LeftLeg
		{
			OFFSET 0.034277 -0.375199 -0.004496
			CHANNELS 3 Zrotation Yrotation Xrotation
			JOINT LeftFoot
			{
				OFFSET -0.013596 -0.397961 -0.043693
				CHANNELS 3 Zrotation Yrotation Xrotation
				JOINT LeftToe
				{
					OFFSET 0.026358 -0.055791 0.119288
					CHANNELS 3 Zrotation Yrotation Xrotation
					End Site
					{
						OFFSET 0.000000 0.000000 0.000000
					}
				}
			}
		}
	}
	JOINT RightUpLeg
	{
		OFFSET -0.067670 -0.090522 -0.004320
		CHANNELS 3 Zrotation Yrotation Xrotation
		JOINT RightLeg
		{
			OFFSET -0.038290 -0.382569 -0.008850
			CHANNELS 3 Zrotation Yrotation Xrotation
			JOINT RightFoot
			{
				OFFSET 0.015774 -0.398415 -0.042312
				CHANNELS 3 Zrotation Yrotation Xrotation
				JOINT RightToe
				{
					OFFSET -0.025372 -0.048144 0.123348
					CHANNELS 3 Zrotation Yrotation Xrotation
					End Site
					{
						OFFSET 0.000000 0.000000 0.000000
					}
				}
			}
		}
	}
	JOINT Spine
	{
		OFFSET -0.002533 0.108963 -0.026696
		CHANNELS 3 Zrotation Yrotation Xrotation
		JOINT Spine1
		{
			OFFSET 0.005487 0.135180 0.001092
			CHANNELS 3 Zrotation Yrotation Xrotation
			JOINT Spine2
			{
				OFFSET 0.001457 0.052922 0.025425
				CHANNELS 3 Zrotation Yrotation Xrotation
				JOINT Neck
				{
					OFFSET -0.002778 0.213870 -0.042857
					CHANNELS 3 Zrotation Yrotation Xrotation
					JOINT Head
					{
						OFFSET 0.005152 0.064970 0.051349
						CHANNELS 3 Zrotation Yrotation Xrotation
						End Site
						{
							OFFSET 0.000000 0.000000 0.000000
						}
					}
				}
				JOINT LeftShoulder
				{
					OFFSET 0.078845 0.121749 -0.034090
					CHANNELS 3 Zrotation Yrotation Xrotation
					JOINT LeftArm
					{
						OFFSET 0.090977 0.030469 -0.008868
						CHANNELS 3 Zrotation Yrotation Xrotation
						JOINT LeftForeArm
						{
							OFFSET 0.259612 -0.012772 -0.027456
							CHANNELS 3 Zrotation Yrotation Xrotation
							JOINT LeftHand
							{
								OFFSET 0.249234 0.008986 -0.001171
								CHANNELS 3 Zrotation Yrotation Xrotation
								End Site
								{
									OFFSET 0.000000 0.000000 0.000000
								}
							}
						}
					}
				}
				JOINT RightShoulder
				{
					OFFSET -0.081759 0.118833 -0.038615
					CHANNELS 3 Zrotation Yrotation Xrotation
					JOINT RightArm
					{
						OFFSET -0.096012 0.032551 -0.009143
						CHANNELS 3 Zrotation Yrotation Xrotation
						JOINT RightForeArm
						{
							OFFSET -0.253742 -0.013329 -0.021401
							CHANNELS 3 Zrotation Yrotation Xrotation
							JOINT RightHand
							{
								OFFSET -0.255298 0.007772 -0.005559
								CHANNELS 3 Zrotation Yrotation Xrotation
								End Site
								{
									OFFSET 0.000000 0.000000 0.000000
								}
							}
						}
					}
				}
			}
		}
	}
}
MOTION
Frames: 14
Frame Time: 0.050000
1.816248 0.858134 -0.022109 -126.068884 82.119368 -116.417319 34.273670 -15.368447 -47.904656 -50.786066 -7.277911 30.310774 65.513253 54.399657 62.055581 0.000000 0.000000 0.000000 -8.074308 -8.970334 -19.965097 -21.635459 -12.969393 48.043636 16.518980 22.523965 1.406638 0.000000 0.000000 0.000000 -14.893991 -10.495508 38.017684 -2.863180 2.273029 -23.723432 5.981105 25.445777 25.878597 5.566061 9.509123 -35.382674 0.000000 0.000000 0.000000 -10.913706 -31.788690 -9.045963 -50.128864 -11.321847 1.537195 -6.182332 -35.899229 -4.475880 0.000000 0.000000 0.000000 24.900164 10.641870 31.072995 44.801480 42.056756 6.822250 -4.736385 29.822744 -1.771028 0.000000 0.000000 0.000000 
1.846297 0.862777 -0.039525 -124.332712 81.539483 -115.241427 32.893430 -14.654687 -45.856568 -52.335422 -7.323946 31.986455 65.346597 54.237188 61.180396 0.000000 0.000000 0.000000 -7.348997 -8.170470 -19.552702 -21.603317 -14.277928 50.147260 12.413615 18.386634 -1.248706 0.000000 0.000000 0.000000 -18.625629 -10.696594 39.605276 -3.914539 2.467665 -23.083209 6.091203 25.494911 24.624566 6.511362 9.084362 -34.252768 0.000000 0.000000 0.000000 -10.142974 -32.846898 -6.842448 -47.149611 -13.087755 2.167647 -1.567280 -36.092248 -5.678031 0.000000 0.000000 0.000000 27.943922 13.685498 34.503698 40.437719 42.663695 4.201779 -7.802401 30.755889 -2.865135 0.000000 0.000000 0.000000 
1.875244 0.872037 -0.053426 -122.075654 80.972777 -112.167671 33.231990 -14.164116 -44.174156 -53.241995 -7.556128 31.552328 63.806752 54.543448 57.650905 0.000000 0.000000 0.000000 -5.864471 -8.062166 -21.538530 -19.515098 -14.599155 49.350551 10.125107 15.292416 -4.113125 0.000000 0.000000 0.000000 -20.876358 -10.782712 40.366107 -4.199003 2.361740 -23.843473 6.416209 25.172155 24.634931 6.003978 9.317948 -35.085546 0.000000 0.000000 0.000000 -8.192729 -31.842306 -5.409447 -47.293982 -14.877208 1.864808 1.219223 -37.999451 -7.376548 0.000000 0.000000 0.000000 29.708208 13.976009 35.652636 38.899194 41.468179 2.473721 -7.344195 32.208053 -2.873894 0.000000 0.000000 0.000000 
1.904034 0.886791 -0.065567 -116.922621 81.622715 -107.336858 28.836425 -12.203000 -38.848430 -49.896084 -8.360511 29.789489 58.151385 52.688662 49.330678 0.000000 0.000000 0.000000 -3.556368 -7.538654 -23.774338 -17.871554 -13.808079 47.647889 7.243145 10.454039 -7.705379 0.000000 0.000000 0.000000 -23.528947 -10.518491 40.834411 -4.049047 2.395155 -23.751641 5.452662 23.926776 24.449083 5.703405 9.021811 -34.508512 0.000000 0.000000 0.000000 -5.853097 -28.968241 -3.516488 -48.042957 -17.994473 1.415043 3.160067 -38.155697 -8.024537 0.000000 0.000000 0.000000 30.658662 15.185617 36.008835 40.876004 41.235663 2.520162 -8.319409 31.712120 -2.997449 0.000000 0.000000 0.000000 
1.932249 0.896500 -0.076426 -122.891901 80.161579 -112.464403 27.507244 -11.829285 -37.080594 -46.394184 -8.612005 29.689375 53.264554 50.809490 42.776175 0.000000 0.000000 0.000000 -0.758466 -7.672448 -26.738283 -15.446550 -13.816203 45.323757 7.015793 9.752259 -7.685634 0.000000 0.000000 0.000000 -22.059344 -10.690333 40.252586 -3.976766 2.519758 -22.515177 4.910605 20.878851 23.952164 4.180355 9.341016 -33.059567 0.000000 0.000000 0.000000 -6.564612 -28.867847 -3.903599 -47.459486 -18.139217 1.921796 4.758163 -37.435560 -8.230713 0.000000 0.000000 0.000000 28.622708 15.088770 33.830325 43.321040 38.125138 2.696036 -7.081029 32.735083 -2.473173 0.000000 0.000000 0.000000 
1.959729 0.908882 -0.085584 -130.085803 79.924309 -119.184399 23.799681 -10.487806 -33.447149 -41.153341 -8.848752 28.344883 51.213169 47.640877 39.220256 0.000000 0.000000 0.000000 2.345416 -8.754029 -31.410523 -15.106125 -12.323023 43.596370 5.280650 7.428213 -3.779464 0.000000 0.000000 0.000000 -20.936151 -10.982781 40.350091 -2.591500 2.345734 -22.790568 3.519844 19.364726 24.354966 6.134548 8.770288 -38.076778 0.000000 0.000000 0.000000 -7.329454 -29.028953 -4.503062 -47.319613 -17.388453 2.124804 3.100185 -38.598848 -7.896974 0.000000 0.000000 0.000000 26.151305 14.236172 31.280925 47.078468 36.072284 3.714689 -6.081410 32.431173 -1.877037 0.000000 0.000000 0.000000 
1.988054 0.916264 -0.093221 -138.891815 79.164786 -128.377780 18.507856 -8.641025 -29.279780 -35.099166 -8.847858 29.651731 46.787975 43.185373 32.815746 0.000000 0.000000 0.000000 5.133711 -9.088428 -33.843077 -14.320329 -10.855998 40.335037 5.408582 7.195144 -4.225807 0.000000 0.000000 0.000000 -18.840247 -11.519145 40.451877 -2.194885 2.369893 -22.325473 2.276794 17.016079 24.235282 7.648376 8.177350 -38.273216 0.000000 0.000000 0.000000 -9.228233 -29.388201 -5.518386 -46.262105 -15.361694 2.323959 0.976183 -39.371544 -6.914254 0.000000 0.000000 0.000000 26.086447 12.881897 30.192472 48.096587 34.037936 3.059591 -5.552502 31.730220 -1.587930 0.000000 0.000000 0.000000 
2.019391 0.919765 -0.098886 -141.741775 79.656956 -131.559529 16.056818 -7.688226 -27.626551 -34.264171 -8.894756 31.392543 42.658306 40.950918 30.010614 0.000000 0.000000 0.000000 7.035890 -9.476062 -36.203892 -14.098983 -8.458915 36.879003 8.214734 11.659654 -2.578408 0.000000 0.000000 0.000000 -17.546191 -11.674252 40.531510 -2.341260 2.346041 -22.440790 1.628620 15.931364 24.104915 9.084816 7.308532 -35.655066 0.000000 0.000000 0.000000 -10.027791 -31.012808 -4.976574 -44.374509 -14.447412 2.422682 -0.361325 -38.638316 -5.849069 0.000000 0.000000 0.000000 26.516848 12.957925 29.949525 47.716899 32.016156 2.093560 -5.076675 31.533505 -1.427358 0.000000 0.000000 0.000000 
2.052902 0.916336 -0.104372 -149.266611 78.914499 -140.154231 14.633858 -6.654664 -24.601410 -35.928798 -9.601473 33.911817 41.125740 39.451485 27.735735 0.000000 0.000000 0.000000 8.356135 -9.971787 -37.525515 -14.065370 -7.205886 34.296301 10.500099 14.427683 0.335828 0.000000 0.000000 0.000000 -13.777084 -11.846963 39.338134 -2.345680 2.455100 -21.781715 0.488874 14.094370 24.583156 9.977416 6.948236 -34.490089 0.000000 0.000000 0.000000 -12.245044 -31.518338 -6.062234 -43.145365 -12.045523 2.372179 -3.640115 -41.248335 -4.843651 0.000000 0.000000 0.000000 28.094243 10.502696 29.679989 45.758070 30.534141 0.546992 -5.164971 32.504685 -1.359890 0.000000 0.000000 0.000000 
2.089018 0.909932 -0.109627 -153.521156 79.868633 -145.076568 12.942318 -5.860890 -22.893740 -39.937255 -10.133281 37.655407 41.368208 40.089109 30.054100 0.000000 0.000000 0.000000 8.257464 -10.843532 -38.661809 -16.036584 -6.620279 35.275389 15.485372 19.734721 6.176505 0.000000 0.000000 0.000000 -9.354327 -11.177021 36.877773 -3.124507 2.529106 -21.500099 -0.958948 12.418900 23.946370 10.177939 6.097813 -29.982421 0.000000 0.000000 0.000000 -15.715535 -31.739779 -8.198882 -42.069846 -7.900218 2.272487 -9.549906 -40.676849 -2.045608 0.000000 0.000000 0.000000 30.392097 9.369991 30.852463 40.542595 29.387715 -1.318932 -3.085933 29.987502 -1.159650 0.000000 0.000000 0.000000 
2.124110 0.903779 -0.114427 -168.931636 78.993205 -162.347516 11.082222 -5.206475 -21.443609 -50.245432 -10.842748 44.773939 43.562035 41.297289 39.099922 0.000000 0.000000 0.000000 5.440720 -10.944841 -35.547825 -16.141881 -8.053236 36.528727 15.213677 19.129954 3.417908 0.000000 0.000000 0.000000 -6.997084 -11.734041 36.538668 -3.334614 2.530412 -20.852169 -0.892967 12.159304 24.809390 10.612946 5.875433 -28.720696 0.000000 0.000000 0.000000 -17.080400 -32.158567 -9.791040 -41.727208 -5.641540 2.303469 -14.576903 -43.524336 -0.623096 0.000000 0.000000 0.000000 28.776461 8.804461 29.774114 42.042598 29.469261 -0.557914 -5.671870 28.759852 -1.600149 0.000000 0.000000 0.000000 
2.156002 0.903888 -0.119790 -172.237393 81.296376 -166.603884 11.201400 -5.212769 -21.672250 -56.856999 -10.087716 46.780405 48.615854 43.380065 47.622489 0.000000 0.000000 0.000000 2.201444 -11.063406 -33.316357 -15.182039 -10.491993 40.384255 16.561760 21.176137 3.909580 0.000000 0.000000 0.000000 -6.371601 -12.064237 37.033799 -2.333465 2.428078 -21.379019 -0.038691 15.398600 24.891990 10.976087 5.701953 -27.719351 0.000000 0.000000 0.000000 -15.921871 -31.563373 -10.502390 -44.877339 -5.089905 1.964526 -19.916895 -44.302112 0.127144 0.000000 0.000000 0.000000 25.874034 8.491896 28.188380 44.884003 29.223911 0.866713 -5.603075 27.054995 -1.434003 0.000000 0.000000 0.000000 
2.184268 0.907033 -0.127293 -174.270896 82.002283 -168.237743 12.429153 -5.951963 -23.594744 -59.090498 -9.816307 46.133013 55.937694 44.571850 56.821017 0.000000 0.000000 0.000000 0.376284 -10.649839 -31.219909 -12.949806 -11.577921 39.962456 14.763646 19.756857 0.205465 0.000000 0.000000 0.000000 -6.345305 -12.183350 37.282138 -1.724609 2.413531 -20.498955 0.922239 17.349213 24.981324 10.233253 5.868771 -26.840435 0.000000 0.000000 0.000000 -14.311228 -30.374950 -10.246904 -47.142161 -6.309479 1.574836 -23.407792 -46.246140 0.487140 0.000000 0.000000 0.000000 25.019927 9.293549 28.335543 43.635413 30.838412 1.852612 -6.623537 23.997898 -1.633826 0.000000 0.000000 0.000000 
2.209633 0.911388 -0.137285 -172.662975 79.240582 -166.043655 15.058058 -7.924791 -27.715599 -58.700447 -10.170949 46.070401 59.669384 44.067006 62.676110 0.000000 0.000000 0.000000 -1.751116 -10.894959 -28.499227 -9.307091 -13.713705 38.252739 14.972553 18.970768 1.884323 0.000000 0.000000 0.000000 -4.655142 -13.247910 37.308174 -1.463195 2.370957 -20.106636 1.523547 19.328130 25.754560 10.569309 4.640476 -22.564857 0.000000 0.000000 0.000000 -12.427149 -31.089184 -10.477815 -49.329278 -6.835995 1.196915 -23.790434 -47.003319 -0.711967 0.000000 0.000000 0.000000 22.642785 9.043626 27.659048 47.857291 32.502880 4.706854 -8.693318 22.317098 -1.869711 0.000000 0.000000 0.000000 
